<svg width="300" height="100" viewBox="0 0 300 100" fill="none" xmlns="http://www.w3.org/2000/svg">
<g filter="url(#filter0_b_22_4)">
<rect width="300" height="100" rx="20" fill="white" fill-opacity="0.8"/>
</g>
<path d="M102.64 56V41.9H107.62C109.94 41.9 111.727 42.5067 112.98 43.72C114.247 44.9333 114.88 46.6733 114.88 48.94C114.88 51.2067 114.247 52.9533 112.98 54.18C111.727 55.3933 109.94 56 107.62 56H102.64ZM104.72 54.26H107.5C110.98 54.26 112.72 52.4867 112.72 48.94C112.72 45.4067 110.98 43.64 107.5 43.64H104.72V54.26ZM117.66 43.98V41.88H120.02V43.98H117.66ZM117.84 56V46.24H119.86V56H117.84ZM127.523 59.78C126.643 59.78 125.823 59.6733 125.063 59.46C124.303 59.26 123.629 58.94 123.043 58.5L123.663 57.06C124.249 57.46 124.849 57.7533 125.463 57.94C126.076 58.1267 126.716 58.22 127.383 58.22C129.249 58.22 130.183 57.2867 130.183 55.42V53.88C129.903 54.4667 129.463 54.9267 128.863 55.26C128.276 55.5933 127.616 55.76 126.883 55.76C126.003 55.76 125.236 55.56 124.583 55.16C123.929 54.7467 123.423 54.18 123.063 53.46C122.703 52.7267 122.523 51.8733 122.523 50.9C122.523 49.94 122.703 49.1 123.063 48.38C123.423 47.6467 123.929 47.08 124.583 46.68C125.236 46.2667 126.003 46.06 126.883 46.06C127.629 46.06 128.296 46.2267 128.883 46.56C129.469 46.8933 129.903 47.3533 130.183 47.94V46.24H132.143V55.18C132.143 56.7133 131.749 57.86 130.963 58.62C130.176 59.3933 129.029 59.78 127.523 59.78ZM127.363 54.18C128.216 54.18 128.896 53.8867 129.403 53.3C129.909 52.7133 130.163 51.9133 130.163 50.9C130.163 49.8867 129.909 49.0933 129.403 48.52C128.896 47.9333 128.216 47.64 127.363 47.64C126.509 47.64 125.829 47.9333 125.323 48.52C124.816 49.0933 124.563 49.8867 124.563 50.9C124.563 51.9133 124.816 52.7133 125.323 53.3C125.829 53.8867 126.509 54.18 127.363 54.18ZM135.198 43.98V41.88H137.558V43.98H135.198ZM135.378 56V46.24H137.398V56H135.378ZM144.801 56.18C143.574 56.18 142.661 55.8667 142.061 55.24C141.461 54.6133 141.161 53.7067 141.161 52.52V47.8H139.261V46.24H141.161V43.3H143.181V46.24H146.201V47.8H143.181V52.36C143.181 53.0667 143.328 53.6 143.621 53.96C143.928 54.32 144.421 54.5 145.101 54.5C145.314 54.5 145.521 54.48 145.721 54.44C145.921 54.3867 146.121 54.3267 146.321 54.26L146.641 55.78C146.441 55.9 146.161 55.9933 145.801 56.06C145.454 56.14 145.121 56.18 144.801 56.18ZM151.466 56.18C150.786 56.18 150.179 56.0467 149.646 55.78C149.112 55.5133 148.686 55.1533 148.366 54.7C148.059 54.2467 147.906 53.7333 147.906 53.16C147.906 52.44 148.086 51.8733 148.446 51.46C148.819 51.0467 149.426 50.7467 150.266 50.56C151.119 50.3733 152.266 50.28 153.706 50.28H154.386V49.76C154.386 49 154.226 48.4533 153.906 48.12C153.586 47.7867 153.059 47.62 152.326 47.62C151.766 47.62 151.206 47.7067 150.646 47.88C150.086 48.04 149.512 48.3 148.926 48.66L148.306 47.24C148.812 46.88 149.446 46.5933 150.206 46.38C150.966 46.1667 151.692 46.06 152.386 46.06C153.719 46.06 154.706 46.38 155.346 47.02C155.986 47.6467 156.306 48.6333 156.306 49.98V56H154.406V54.38C154.166 54.94 153.792 55.38 153.286 55.7C152.779 56.02 152.172 56.18 151.466 56.18ZM151.866 54.74C152.586 54.74 153.186 54.4867 153.666 53.98C154.146 53.4733 154.386 52.8333 154.386 52.06V51.52H153.726C152.752 51.52 151.986 51.5667 151.426 51.66C150.879 51.7533 150.486 51.9133 150.246 52.14C150.019 52.3533 149.906 52.6533 149.906 53.04C149.906 53.5467 150.079 53.96 150.426 54.28C150.772 54.5867 151.252 54.74 151.866 54.74ZM162.668 56.18C161.601 56.18 160.801 55.88 160.268 55.28C159.748 54.68 159.488 53.8 159.488 52.64V41.9H161.508V52.52C161.508 53.84 162.048 54.5 163.128 54.5C163.288 54.5 163.435 54.4933 163.568 54.48C163.715 54.4667 163.861 54.44 164.008 54.4L163.968 56.02C163.515 56.1267 163.081 56.18 162.668 56.18ZM171.875 56V41.9H173.955V54.22H180.935V56H171.875ZM182.91 43.98V41.88H185.27V43.98H182.91ZM183.09 56V46.24H185.11V56H183.09ZM193.594 56.18C192.847 56.18 192.187 56.0133 191.614 55.68C191.04 55.3467 190.614 54.9 190.334 54.34V56H188.354V41.9H190.374V47.82C190.667 47.2867 191.094 46.86 191.654 46.54C192.227 46.22 192.874 46.06 193.594 46.06C194.46 46.06 195.214 46.2667 195.854 46.68C196.507 47.0933 197.007 47.68 197.354 48.44C197.714 49.1867 197.894 50.08 197.894 51.12C197.894 52.16 197.714 53.06 197.354 53.82C197.007 54.58 196.507 55.1667 195.854 55.58C195.214 55.98 194.46 56.18 193.594 56.18ZM193.094 54.62C193.934 54.62 194.6 54.32 195.094 53.72C195.6 53.12 195.854 52.2533 195.854 51.12C195.854 49.9867 195.6 49.1267 195.094 48.54C194.6 47.94 193.934 47.64 193.094 47.64C192.254 47.64 191.58 47.94 191.074 48.54C190.58 49.1267 190.334 49.9867 190.334 51.12C190.334 52.2533 190.58 53.12 191.074 53.72C191.58 54.32 192.254 54.62 193.094 54.62ZM200.57 56V46.24H202.53V47.98C203.037 46.82 204.09 46.1733 205.69 46.04L206.35 46L206.49 47.72L205.27 47.84C203.497 48.0133 202.61 48.9267 202.61 50.58V56H200.57ZM211.453 56.18C210.773 56.18 210.167 56.0467 209.633 55.78C209.1 55.5133 208.673 55.1533 208.353 54.7C208.047 54.2467 207.893 53.7333 207.893 53.16C207.893 52.44 208.073 51.8733 208.433 51.46C208.807 51.0467 209.413 50.7467 210.253 50.56C211.107 50.3733 212.253 50.28 213.693 50.28H214.373V49.76C214.373 49 214.213 48.4533 213.893 48.12C213.573 47.7867 213.047 47.62 212.313 47.62C211.753 47.62 211.193 47.7067 210.633 47.88C210.073 48.04 209.5 48.3 208.913 48.66L208.293 47.24C208.8 46.88 209.433 46.5933 210.193 46.38C210.953 46.1667 211.68 46.06 212.373 46.06C213.707 46.06 214.693 46.38 215.333 47.02C215.973 47.6467 216.293 48.6333 216.293 49.98V56H214.393V54.38C214.153 54.94 213.78 55.38 213.273 55.7C212.767 56.02 212.16 56.18 211.453 56.18ZM211.853 54.74C212.573 54.74 213.173 54.4867 213.653 53.98C214.133 53.4733 214.373 52.8333 214.373 52.06V51.52H213.713C212.74 51.52 211.973 51.5667 211.413 51.66C210.867 51.7533 210.473 51.9133 210.233 52.14C210.007 52.3533 209.893 52.6533 209.893 53.04C209.893 53.5467 210.067 53.96 210.413 54.28C210.76 54.5867 211.24 54.74 211.853 54.74ZM219.475 56V46.24H221.435V47.98C221.942 46.82 222.995 46.1733 224.595 46.04L225.255 46L225.395 47.72L224.175 47.84C222.402 48.0133 221.515 48.9267 221.515 50.58V56H219.475ZM228.942 59.6L230.682 55.74L226.602 46.24H228.762L231.762 53.66L234.802 46.24H236.882L231.062 59.6H228.942Z" fill="#545567"/>
<rect x="28" y="25" width="50" height="50" rx="8" fill="#23BDEE"/>
<g clip-path="url(#clip0_22_4)">
<path d="M46.125 36.25C45.5826 36.25 45.1429 36.6897 45.1429 37.2322V39.1964H47.1071V37.2322C47.1071 36.6897 46.6674 36.25 46.125 36.25Z" fill="white"/>
<path d="M59.875 36.25C59.3325 36.25 58.8928 36.6897 58.8928 37.2322V39.1964H60.8571V37.2322C60.8571 36.6897 60.4174 36.25 59.875 36.25Z" fill="white"/>
<path d="M63.8036 39.1964H60.8571V43.125C60.8571 43.6675 60.4174 44.1072 59.875 44.1072C59.3325 44.1072 58.8928 43.6675 58.8928 43.125V39.1964H47.1071V43.125C47.1071 43.6675 46.6674 44.1072 46.125 44.1072C45.5825 44.1072 45.1428 43.6675 45.1428 43.125V39.1964H42.1964C40.5692 39.1964 39.25 40.5156 39.25 42.1429V60.8036C39.25 62.4309 40.5692 63.75 42.1964 63.75H63.8036C65.4308 63.75 66.75 62.4309 66.75 60.8036V42.1429C66.75 40.5156 65.4308 39.1964 63.8036 39.1964ZM64.7857 60.8036C64.7857 61.346 64.346 61.7857 63.8035 61.7857H42.1964C41.654 61.7857 41.2143 61.346 41.2143 60.8036V48.0357H64.7857V60.8036Z" fill="white"/>
<path d="M47.1071 50H45.1428C44.6004 50 44.1607 50.4397 44.1607 50.9822C44.1607 51.5246 44.6004 51.9643 45.1428 51.9643H47.1071C47.6495 51.9643 48.0893 51.5246 48.0893 50.9822C48.0893 50.4397 47.6495 50 47.1071 50Z" fill="white"/>
<path d="M53.9821 50H52.0179C51.4754 50 51.0357 50.4397 51.0357 50.9822C51.0357 51.5246 51.4754 51.9643 52.0179 51.9643H53.9821C54.5246 51.9643 54.9643 51.5246 54.9643 50.9822C54.9643 50.4397 54.5246 50 53.9821 50Z" fill="white"/>
<path d="M60.8572 50H58.8929C58.3505 50 57.9107 50.4397 57.9107 50.9822C57.9107 51.5246 58.3505 51.9643 58.8929 51.9643H60.8572C61.3996 51.9643 61.8393 51.5246 61.8393 50.9822C61.8393 50.4397 61.3995 50 60.8572 50Z" fill="white"/>
<path d="M47.1071 53.9286H45.1428C44.6004 53.9286 44.1607 54.3683 44.1607 54.9107C44.1607 55.4532 44.6004 55.8929 45.1428 55.8929H47.1071C47.6495 55.8929 48.0893 55.4532 48.0893 54.9107C48.0893 54.3683 47.6495 53.9286 47.1071 53.9286Z" fill="white"/>
<path d="M53.9821 53.9286H52.0179C51.4754 53.9286 51.0357 54.3683 51.0357 54.9107C51.0357 55.4532 51.4754 55.8929 52.0179 55.8929H53.9821C54.5246 55.8929 54.9643 55.4532 54.9643 54.9107C54.9643 54.3683 54.5246 53.9286 53.9821 53.9286Z" fill="white"/>
<path d="M60.8572 53.9286H58.8929C58.3505 53.9286 57.9107 54.3683 57.9107 54.9107C57.9107 55.4532 58.3505 55.8929 58.8929 55.8929H60.8572C61.3996 55.8929 61.8393 55.4532 61.8393 54.9107C61.8393 54.3683 61.3995 53.9286 60.8572 53.9286Z" fill="white"/>
<path d="M47.1071 57.8571H45.1428C44.6004 57.8571 44.1607 58.2968 44.1607 58.8393C44.1607 59.3817 44.6004 59.8214 45.1428 59.8214H47.1071C47.6495 59.8214 48.0893 59.3817 48.0893 58.8392C48.0893 58.2968 47.6495 57.8571 47.1071 57.8571Z" fill="white"/>
<path d="M53.9821 57.8571H52.0179C51.4754 57.8571 51.0357 58.2968 51.0357 58.8393C51.0357 59.3817 51.4754 59.8214 52.0179 59.8214H53.9821C54.5246 59.8214 54.9643 59.3817 54.9643 58.8393C54.9643 58.2968 54.5246 57.8571 53.9821 57.8571Z" fill="white"/>
<path d="M60.8572 57.8571H58.8929C58.3505 57.8571 57.9107 58.2968 57.9107 58.8393C57.9107 59.3817 58.3505 59.8214 58.8929 59.8214H60.8572C61.3996 59.8214 61.8393 59.3817 61.8393 58.8393C61.8393 58.2968 61.3995 57.8571 60.8572 57.8571Z" fill="white"/>
</g>
<defs>
<filter id="filter0_b_22_4" x="-20" y="-20" width="340" height="140" filterUnits="userSpaceOnUse" color-interpolation-filters="sRGB">
<feFlood flood-opacity="0" result="BackgroundImageFix"/>
<feGaussianBlur in="BackgroundImageFix" stdDeviation="10"/>
<feComposite in2="SourceAlpha" operator="in" result="effect1_backgroundBlur_22_4"/>
<feBlend mode="normal" in="SourceGraphic" in2="effect1_backgroundBlur_22_4" result="shape"/>
</filter>
<clipPath id="clip0_22_4">
<rect width="27.5" height="27.5" fill="white" transform="translate(39.25 36.25)"/>
</clipPath>
</defs>
</svg>
