<svg width="370" height="110" viewBox="0 0 370 110" fill="none" xmlns="http://www.w3.org/2000/svg">
<g filter="url(#filter0_b_32_0)">
<rect width="370" height="110" rx="20" fill="white" fill-opacity="0.8"/>
</g>
<path d="M109.504 49.216C107.84 49.216 106.384 48.864 105.136 48.16C103.904 47.44 102.952 46.424 102.28 45.112C101.624 43.8 101.296 42.272 101.296 40.528C101.296 38.784 101.624 37.264 102.28 35.968C102.952 34.656 103.904 33.648 105.136 32.944C106.384 32.224 107.84 31.864 109.504 31.864C110.64 31.864 111.712 32.04 112.72 32.392C113.728 32.744 114.576 33.24 115.264 33.88L114.232 36.136C113.464 35.528 112.704 35.088 111.952 34.816C111.2 34.528 110.4 34.384 109.552 34.384C107.92 34.384 106.656 34.912 105.76 35.968C104.88 37.024 104.44 38.544 104.44 40.528C104.44 42.528 104.88 44.056 105.76 45.112C106.656 46.168 107.92 46.696 109.552 46.696C110.4 46.696 111.2 46.56 111.952 46.288C112.704 46 113.464 45.552 114.232 44.944L115.264 47.2C114.576 47.84 113.728 48.336 112.72 48.688C111.712 49.04 110.64 49.216 109.504 49.216ZM123.423 49.192C122.223 49.192 121.167 48.944 120.255 48.448C119.359 47.952 118.663 47.24 118.167 46.312C117.671 45.384 117.423 44.304 117.423 43.072C117.423 41.84 117.671 40.768 118.167 39.856C118.663 38.928 119.359 38.216 120.255 37.72C121.167 37.224 122.223 36.976 123.423 36.976C124.623 36.976 125.671 37.224 126.567 37.72C127.479 38.216 128.175 38.928 128.655 39.856C129.151 40.768 129.399 41.84 129.399 43.072C129.399 44.304 129.151 45.384 128.655 46.312C128.175 47.24 127.479 47.952 126.567 48.448C125.671 48.944 124.623 49.192 123.423 49.192ZM123.399 46.864C124.375 46.864 125.119 46.544 125.631 45.904C126.143 45.264 126.399 44.32 126.399 43.072C126.399 41.84 126.143 40.904 125.631 40.264C125.119 39.608 124.383 39.28 123.423 39.28C122.463 39.28 121.719 39.608 121.191 40.264C120.679 40.904 120.423 41.84 120.423 43.072C120.423 44.32 120.679 45.264 121.191 45.904C121.703 46.544 122.439 46.864 123.399 46.864ZM139.172 36.976C140.58 36.976 141.628 37.376 142.316 38.176C143.004 38.976 143.348 40.184 143.348 41.8V49H140.348V41.968C140.348 41.056 140.172 40.392 139.82 39.976C139.484 39.56 138.948 39.352 138.212 39.352C137.348 39.352 136.652 39.624 136.124 40.168C135.612 40.712 135.356 41.44 135.356 42.352V49H132.356V37.264H135.284V39.016C135.684 38.36 136.22 37.856 136.892 37.504C137.564 37.152 138.324 36.976 139.172 36.976ZM158.299 37.264V47.92C158.299 49.76 157.787 51.152 156.763 52.096C155.755 53.04 154.259 53.512 152.275 53.512C151.251 53.512 150.267 53.376 149.323 53.104C148.379 52.848 147.555 52.48 146.851 52L147.691 49.888C149.147 50.768 150.651 51.208 152.203 51.208C154.283 51.208 155.323 50.184 155.323 48.136V46.6C154.971 47.256 154.459 47.768 153.787 48.136C153.115 48.488 152.347 48.664 151.483 48.664C150.459 48.664 149.547 48.424 148.747 47.944C147.963 47.448 147.347 46.76 146.899 45.88C146.451 45 146.227 43.984 146.227 42.832C146.227 41.68 146.443 40.664 146.875 39.784C147.323 38.888 147.947 38.2 148.747 37.72C149.547 37.224 150.459 36.976 151.483 36.976C152.347 36.976 153.115 37.16 153.787 37.528C154.459 37.88 154.971 38.384 155.323 39.04V37.264H158.299ZM152.275 46.336C153.235 46.336 153.979 46.024 154.507 45.4C155.051 44.776 155.323 43.92 155.323 42.832C155.323 41.728 155.051 40.864 154.507 40.24C153.979 39.616 153.235 39.304 152.275 39.304C151.331 39.304 150.587 39.616 150.043 40.24C149.499 40.864 149.227 41.728 149.227 42.832C149.227 43.904 149.499 44.76 150.043 45.4C150.587 46.024 151.331 46.336 152.275 46.336ZM169.614 39.472L167.862 39.64C165.878 39.848 164.886 40.856 164.886 42.664V49H161.886V37.264H164.742V39.328C165.35 37.92 166.606 37.152 168.51 37.024L169.422 36.952L169.614 39.472ZM176.547 36.976C178.195 36.976 179.419 37.376 180.219 38.176C181.019 38.976 181.419 40.208 181.419 41.872V49H178.563V47.2C178.291 47.824 177.859 48.312 177.267 48.664C176.691 49.016 176.019 49.192 175.251 49.192C174.467 49.192 173.755 49.032 173.115 48.712C172.475 48.392 171.971 47.952 171.603 47.392C171.235 46.832 171.051 46.208 171.051 45.52C171.051 44.656 171.267 43.976 171.699 43.48C172.147 42.984 172.867 42.624 173.859 42.4C174.851 42.176 176.219 42.064 177.963 42.064H178.563V41.512C178.563 40.712 178.387 40.136 178.035 39.784C177.699 39.432 177.131 39.256 176.331 39.256C175.707 39.256 175.051 39.368 174.363 39.592C173.691 39.8 173.027 40.096 172.371 40.48L171.531 38.416C172.187 38 172.979 37.656 173.907 37.384C174.835 37.112 175.715 36.976 176.547 36.976ZM175.851 47.032C176.651 47.032 177.299 46.768 177.795 46.24C178.307 45.696 178.563 45 178.563 44.152V43.648H178.131C177.059 43.648 176.227 43.696 175.635 43.792C175.043 43.888 174.619 44.056 174.363 44.296C174.107 44.536 173.979 44.864 173.979 45.28C173.979 45.792 174.155 46.216 174.507 46.552C174.859 46.872 175.307 47.032 175.851 47.032ZM190.948 46.936C191.3 46.936 191.668 46.912 192.052 46.864L191.908 49.096C191.428 49.144 190.988 49.168 190.588 49.168C188.94 49.168 187.724 48.792 186.94 48.04C186.156 47.272 185.764 46.136 185.764 44.632V39.52H183.508V37.264H185.764V33.76H188.764V37.264H191.86V39.52H188.764V44.584C188.764 46.152 189.492 46.936 190.948 46.936ZM205.063 37.264V49H202.135V47.2C201.767 47.84 201.271 48.336 200.647 48.688C200.023 49.024 199.319 49.192 198.535 49.192C195.655 49.192 194.215 47.576 194.215 44.344V37.264H197.215V44.368C197.215 45.2 197.383 45.816 197.719 46.216C198.055 46.616 198.583 46.816 199.303 46.816C200.135 46.816 200.799 46.544 201.295 46C201.807 45.44 202.063 44.704 202.063 43.792V37.264H205.063ZM208.666 49V32.08H211.666V49H208.666ZM220.279 36.976C221.927 36.976 223.151 37.376 223.951 38.176C224.751 38.976 225.151 40.208 225.151 41.872V49H222.295V47.2C222.023 47.824 221.591 48.312 220.999 48.664C220.423 49.016 219.751 49.192 218.983 49.192C218.199 49.192 217.487 49.032 216.847 48.712C216.207 48.392 215.703 47.952 215.335 47.392C214.967 46.832 214.783 46.208 214.783 45.52C214.783 44.656 214.999 43.976 215.431 43.48C215.879 42.984 216.599 42.624 217.591 42.4C218.583 42.176 219.951 42.064 221.695 42.064H222.295V41.512C222.295 40.712 222.119 40.136 221.767 39.784C221.431 39.432 220.863 39.256 220.063 39.256C219.439 39.256 218.783 39.368 218.095 39.592C217.423 39.8 216.759 40.096 216.103 40.48L215.263 38.416C215.919 38 216.711 37.656 217.639 37.384C218.567 37.112 219.447 36.976 220.279 36.976ZM219.583 47.032C220.383 47.032 221.031 46.768 221.527 46.24C222.039 45.696 222.295 45 222.295 44.152V43.648H221.863C220.791 43.648 219.959 43.696 219.367 43.792C218.775 43.888 218.351 44.056 218.095 44.296C217.839 44.536 217.711 44.864 217.711 45.28C217.711 45.792 217.887 46.216 218.239 46.552C218.591 46.872 219.039 47.032 219.583 47.032ZM234.68 46.936C235.032 46.936 235.4 46.912 235.784 46.864L235.64 49.096C235.16 49.144 234.72 49.168 234.32 49.168C232.672 49.168 231.456 48.792 230.672 48.04C229.888 47.272 229.496 46.136 229.496 44.632V39.52H227.24V37.264H229.496V33.76H232.496V37.264H235.592V39.52H232.496V44.584C232.496 46.152 233.224 46.936 234.68 46.936ZM238.02 49V37.264H241.02V49H238.02ZM237.852 31.816H241.164V34.768H237.852V31.816ZM249.945 49.192C248.745 49.192 247.689 48.944 246.777 48.448C245.881 47.952 245.185 47.24 244.689 46.312C244.193 45.384 243.945 44.304 243.945 43.072C243.945 41.84 244.193 40.768 244.689 39.856C245.185 38.928 245.881 38.216 246.777 37.72C247.689 37.224 248.745 36.976 249.945 36.976C251.145 36.976 252.193 37.224 253.089 37.72C254.001 38.216 254.697 38.928 255.177 39.856C255.673 40.768 255.921 41.84 255.921 43.072C255.921 44.304 255.673 45.384 255.177 46.312C254.697 47.24 254.001 47.952 253.089 48.448C252.193 48.944 251.145 49.192 249.945 49.192ZM249.921 46.864C250.897 46.864 251.641 46.544 252.153 45.904C252.665 45.264 252.921 44.32 252.921 43.072C252.921 41.84 252.665 40.904 252.153 40.264C251.641 39.608 250.905 39.28 249.945 39.28C248.985 39.28 248.241 39.608 247.713 40.264C247.201 40.904 246.945 41.84 246.945 43.072C246.945 44.32 247.201 45.264 247.713 45.904C248.225 46.544 248.961 46.864 249.921 46.864ZM265.694 36.976C267.102 36.976 268.15 37.376 268.838 38.176C269.526 38.976 269.87 40.184 269.87 41.8V49H266.87V41.968C266.87 41.056 266.694 40.392 266.342 39.976C266.006 39.56 265.47 39.352 264.734 39.352C263.87 39.352 263.174 39.624 262.646 40.168C262.134 40.712 261.878 41.44 261.878 42.352V49H258.878V37.264H261.806V39.016C262.206 38.36 262.742 37.856 263.414 37.504C264.086 37.152 264.846 36.976 265.694 36.976ZM277.717 49.192C276.677 49.192 275.717 49.064 274.837 48.808C273.973 48.552 273.237 48.184 272.629 47.704L273.469 45.616C274.717 46.528 276.149 46.984 277.765 46.984C278.453 46.984 278.973 46.872 279.325 46.648C279.693 46.424 279.877 46.104 279.877 45.688C279.877 45.336 279.749 45.064 279.493 44.872C279.253 44.68 278.813 44.504 278.173 44.344L276.253 43.912C275.165 43.672 274.357 43.28 273.829 42.736C273.301 42.192 273.037 41.488 273.037 40.624C273.037 39.904 273.237 39.272 273.637 38.728C274.053 38.168 274.621 37.736 275.341 37.432C276.077 37.128 276.925 36.976 277.885 36.976C278.717 36.976 279.517 37.104 280.285 37.36C281.069 37.616 281.757 37.976 282.349 38.44L281.509 40.48C280.293 39.6 279.077 39.16 277.861 39.16C277.205 39.16 276.693 39.28 276.325 39.52C275.957 39.76 275.773 40.096 275.773 40.528C275.773 40.848 275.885 41.112 276.109 41.32C276.349 41.528 276.725 41.688 277.237 41.8L279.229 42.256C280.397 42.512 281.253 42.92 281.797 43.48C282.341 44.024 282.613 44.744 282.613 45.64C282.613 46.728 282.173 47.592 281.293 48.232C280.413 48.872 279.221 49.192 277.717 49.192Z" fill="#595959"/>
<path d="M107.76 79.18C106.413 79.18 105.247 78.8867 104.26 78.3C103.273 77.7 102.507 76.86 101.96 75.78C101.427 74.6867 101.16 73.4067 101.16 71.94C101.16 70.46 101.427 69.18 101.96 68.1C102.507 67.02 103.273 66.1867 104.26 65.6C105.247 65.0133 106.413 64.72 107.76 64.72C109.093 64.72 110.253 65.0133 111.24 65.6C112.24 66.1867 113.007 67.02 113.54 68.1C114.087 69.18 114.36 70.4533 114.36 71.92C114.36 73.4 114.087 74.6867 113.54 75.78C113.007 76.86 112.24 77.7 111.24 78.3C110.253 78.8867 109.093 79.18 107.76 79.18ZM107.76 77.38C109.16 77.38 110.247 76.9067 111.02 75.96C111.807 75 112.2 73.66 112.2 71.94C112.2 70.22 111.813 68.8867 111.04 67.94C110.267 66.9933 109.173 66.52 107.76 66.52C106.36 66.52 105.267 66.9933 104.48 67.94C103.707 68.8867 103.32 70.22 103.32 71.94C103.32 73.66 103.707 75 104.48 75.96C105.267 76.9067 106.36 77.38 107.76 77.38ZM121.488 79.18C120.261 79.18 119.348 78.8667 118.748 78.24C118.148 77.6133 117.848 76.7067 117.848 75.52V70.8H115.948V69.24H117.848V66.3H119.868V69.24H122.888V70.8H119.868V75.36C119.868 76.0667 120.014 76.6 120.308 76.96C120.614 77.32 121.108 77.5 121.788 77.5C122.001 77.5 122.208 77.48 122.408 77.44C122.608 77.3867 122.808 77.3267 123.008 77.26L123.328 78.78C123.128 78.9 122.848 78.9933 122.488 79.06C122.141 79.14 121.808 79.18 121.488 79.18ZM129.175 79.18C128.188 79.18 127.335 78.9733 126.615 78.56C125.895 78.1467 125.335 77.5667 124.935 76.82C124.548 76.06 124.355 75.16 124.355 74.12C124.355 73.08 124.548 72.1867 124.935 71.44C125.335 70.68 125.895 70.0933 126.615 69.68C127.335 69.2667 128.188 69.06 129.175 69.06C130.135 69.06 130.975 69.2667 131.695 69.68C132.415 70.0933 132.975 70.68 133.375 71.44C133.775 72.1867 133.975 73.08 133.975 74.12C133.975 75.16 133.775 76.06 133.375 76.82C132.975 77.5667 132.415 78.1467 131.695 78.56C130.975 78.9733 130.135 79.18 129.175 79.18ZM129.175 77.62C130.002 77.62 130.668 77.32 131.175 76.72C131.682 76.12 131.935 75.2533 131.935 74.12C131.935 72.9867 131.682 72.1267 131.175 71.54C130.668 70.94 130.002 70.64 129.175 70.64C128.335 70.64 127.662 70.94 127.155 71.54C126.648 72.1267 126.395 72.9867 126.395 74.12C126.395 75.2533 126.648 76.12 127.155 76.72C127.662 77.32 128.335 77.62 129.175 77.62ZM141.883 79.18C141.137 79.18 140.477 79.0133 139.903 78.68C139.33 78.3467 138.903 77.9 138.623 77.34V79H136.643V64.9H138.663V70.82C138.957 70.2867 139.383 69.86 139.943 69.54C140.517 69.22 141.163 69.06 141.883 69.06C142.75 69.06 143.503 69.2667 144.143 69.68C144.797 70.0933 145.297 70.68 145.643 71.44C146.003 72.1867 146.183 73.08 146.183 74.12C146.183 75.16 146.003 76.06 145.643 76.82C145.297 77.58 144.797 78.1667 144.143 78.58C143.503 78.98 142.75 79.18 141.883 79.18ZM141.383 77.62C142.223 77.62 142.89 77.32 143.383 76.72C143.89 76.12 144.143 75.2533 144.143 74.12C144.143 72.9867 143.89 72.1267 143.383 71.54C142.89 70.94 142.223 70.64 141.383 70.64C140.543 70.64 139.87 70.94 139.363 71.54C138.87 72.1267 138.623 72.9867 138.623 74.12C138.623 75.2533 138.87 76.12 139.363 76.72C139.87 77.32 140.543 77.62 141.383 77.62ZM153.1 79.18C152.113 79.18 151.26 78.9733 150.54 78.56C149.82 78.1467 149.26 77.5667 148.86 76.82C148.473 76.06 148.28 75.16 148.28 74.12C148.28 73.08 148.473 72.1867 148.86 71.44C149.26 70.68 149.82 70.0933 150.54 69.68C151.26 69.2667 152.113 69.06 153.1 69.06C154.06 69.06 154.9 69.2667 155.62 69.68C156.34 70.0933 156.9 70.68 157.3 71.44C157.7 72.1867 157.9 73.08 157.9 74.12C157.9 75.16 157.7 76.06 157.3 76.82C156.9 77.5667 156.34 78.1467 155.62 78.56C154.9 78.9733 154.06 79.18 153.1 79.18ZM153.1 77.62C153.927 77.62 154.593 77.32 155.1 76.72C155.607 76.12 155.86 75.2533 155.86 74.12C155.86 72.9867 155.607 72.1267 155.1 71.54C154.593 70.94 153.927 70.64 153.1 70.64C152.26 70.64 151.587 70.94 151.08 71.54C150.573 72.1267 150.32 72.9867 150.32 74.12C150.32 75.2533 150.573 76.12 151.08 76.72C151.587 77.32 152.26 77.62 153.1 77.62ZM164.808 79.18C163.822 79.18 162.968 78.9733 162.248 78.56C161.528 78.1467 160.968 77.5667 160.568 76.82C160.182 76.06 159.988 75.16 159.988 74.12C159.988 73.08 160.182 72.1867 160.568 71.44C160.968 70.68 161.528 70.0933 162.248 69.68C162.968 69.2667 163.822 69.06 164.808 69.06C165.768 69.06 166.608 69.2667 167.328 69.68C168.048 70.0933 168.608 70.68 169.008 71.44C169.408 72.1867 169.608 73.08 169.608 74.12C169.608 75.16 169.408 76.06 169.008 76.82C168.608 77.5667 168.048 78.1467 167.328 78.56C166.608 78.9733 165.768 79.18 164.808 79.18ZM164.808 77.62C165.635 77.62 166.302 77.32 166.808 76.72C167.315 76.12 167.568 75.2533 167.568 74.12C167.568 72.9867 167.315 72.1267 166.808 71.54C166.302 70.94 165.635 70.64 164.808 70.64C163.968 70.64 163.295 70.94 162.788 71.54C162.282 72.1267 162.028 72.9867 162.028 74.12C162.028 75.2533 162.282 76.12 162.788 76.72C163.295 77.32 163.968 77.62 164.808 77.62ZM172.277 79V64.9H174.297V73.5H174.337L178.577 69.24H181.077L176.397 73.94L181.437 79H178.917L174.337 74.54H174.297V79H172.277ZM188.863 79V64.9H190.943V79H188.863ZM197.795 79.18C196.995 79.18 196.249 79.08 195.555 78.88C194.862 78.6667 194.282 78.3733 193.815 78L194.395 76.64C194.889 76.9867 195.429 77.2533 196.015 77.44C196.615 77.6267 197.215 77.72 197.815 77.72C198.522 77.72 199.055 77.5933 199.415 77.34C199.775 77.0867 199.955 76.7467 199.955 76.32C199.955 75.9733 199.835 75.7067 199.595 75.52C199.355 75.32 198.995 75.1667 198.515 75.06L196.615 74.68C194.935 74.3333 194.095 73.4667 194.095 72.08C194.095 71.16 194.462 70.4267 195.195 69.88C195.929 69.3333 196.889 69.06 198.075 69.06C198.755 69.06 199.402 69.16 200.015 69.36C200.642 69.56 201.162 69.86 201.575 70.26L200.995 71.62C200.595 71.2733 200.135 71.0067 199.615 70.82C199.095 70.6333 198.582 70.54 198.075 70.54C197.382 70.54 196.855 70.6733 196.495 70.94C196.135 71.1933 195.955 71.54 195.955 71.98C195.955 72.6467 196.395 73.0733 197.275 73.26L199.175 73.64C200.042 73.8133 200.695 74.1067 201.135 74.52C201.589 74.9333 201.815 75.4933 201.815 76.2C201.815 77.1333 201.449 77.8667 200.715 78.4C199.982 78.92 199.009 79.18 197.795 79.18ZM214.277 79.18C213.05 79.18 212.137 78.8667 211.537 78.24C210.937 77.6133 210.637 76.7067 210.637 75.52V70.8H208.737V69.24H210.637V66.3H212.657V69.24H215.677V70.8H212.657V75.36C212.657 76.0667 212.804 76.6 213.097 76.96C213.404 77.32 213.897 77.5 214.577 77.5C214.79 77.5 214.997 77.48 215.197 77.44C215.397 77.3867 215.597 77.3267 215.797 77.26L216.117 78.78C215.917 78.9 215.637 78.9933 215.277 79.06C214.93 79.14 214.597 79.18 214.277 79.18ZM217.822 79V64.9H219.842V70.76C220.175 70.2 220.622 69.78 221.182 69.5C221.755 69.2067 222.395 69.06 223.102 69.06C225.408 69.06 226.562 70.3667 226.562 72.98V79H224.542V73.1C224.542 72.26 224.375 71.6467 224.042 71.26C223.722 70.8733 223.215 70.68 222.522 70.68C221.708 70.68 221.055 70.94 220.562 71.46C220.082 71.9667 219.842 72.64 219.842 73.48V79H217.822ZM234.325 79.18C232.725 79.18 231.465 78.7333 230.545 77.84C229.625 76.9333 229.165 75.7 229.165 74.14C229.165 73.14 229.365 72.26 229.765 71.5C230.178 70.7267 230.745 70.1267 231.465 69.7C232.185 69.2733 233.012 69.06 233.945 69.06C235.292 69.06 236.352 69.4933 237.125 70.36C237.898 71.2133 238.285 72.3933 238.285 73.9V74.58H231.125C231.272 76.6067 232.345 77.62 234.345 77.62C234.905 77.62 235.452 77.5333 235.985 77.36C236.532 77.1867 237.045 76.9 237.525 76.5L238.125 77.9C237.685 78.3 237.118 78.6133 236.425 78.84C235.732 79.0667 235.032 79.18 234.325 79.18ZM234.025 70.48C233.185 70.48 232.518 70.74 232.025 71.26C231.532 71.78 231.232 72.4733 231.125 73.34H236.585C236.545 72.4333 236.305 71.7333 235.865 71.24C235.425 70.7333 234.812 70.48 234.025 70.48ZM251.781 79.18C251.034 79.18 250.374 79.0133 249.801 78.68C249.228 78.3467 248.801 77.9 248.521 77.34V79H246.541V64.9H248.561V70.82C248.854 70.2867 249.281 69.86 249.841 69.54C250.414 69.22 251.061 69.06 251.781 69.06C252.648 69.06 253.401 69.2667 254.041 69.68C254.694 70.0933 255.194 70.68 255.541 71.44C255.901 72.1867 256.081 73.08 256.081 74.12C256.081 75.16 255.901 76.06 255.541 76.82C255.194 77.58 254.694 78.1667 254.041 78.58C253.401 78.98 252.648 79.18 251.781 79.18ZM251.281 77.62C252.121 77.62 252.788 77.32 253.281 76.72C253.788 76.12 254.041 75.2533 254.041 74.12C254.041 72.9867 253.788 72.1267 253.281 71.54C252.788 70.94 252.121 70.64 251.281 70.64C250.441 70.64 249.768 70.94 249.261 71.54C248.768 72.1267 248.521 72.9867 248.521 74.12C248.521 75.2533 248.768 76.12 249.261 76.72C249.768 77.32 250.441 77.62 251.281 77.62ZM263.337 79.18C261.737 79.18 260.477 78.7333 259.557 77.84C258.637 76.9333 258.177 75.7 258.177 74.14C258.177 73.14 258.377 72.26 258.777 71.5C259.191 70.7267 259.757 70.1267 260.477 69.7C261.197 69.2733 262.024 69.06 262.957 69.06C264.304 69.06 265.364 69.4933 266.137 70.36C266.911 71.2133 267.297 72.3933 267.297 73.9V74.58H260.137C260.284 76.6067 261.357 77.62 263.357 77.62C263.917 77.62 264.464 77.5333 264.997 77.36C265.544 77.1867 266.057 76.9 266.537 76.5L267.137 77.9C266.697 78.3 266.131 78.6133 265.437 78.84C264.744 79.0667 264.044 79.18 263.337 79.18ZM263.037 70.48C262.197 70.48 261.531 70.74 261.037 71.26C260.544 71.78 260.244 72.4733 260.137 73.34H265.597C265.557 72.4333 265.317 71.7333 264.877 71.24C264.437 70.7333 263.824 70.48 263.037 70.48ZM273.32 79.18C272.52 79.18 271.773 79.08 271.08 78.88C270.386 78.6667 269.806 78.3733 269.34 78L269.92 76.64C270.413 76.9867 270.953 77.2533 271.54 77.44C272.14 77.6267 272.74 77.72 273.34 77.72C274.046 77.72 274.58 77.5933 274.94 77.34C275.3 77.0867 275.48 76.7467 275.48 76.32C275.48 75.9733 275.36 75.7067 275.12 75.52C274.88 75.32 274.52 75.1667 274.04 75.06L272.14 74.68C270.46 74.3333 269.62 73.4667 269.62 72.08C269.62 71.16 269.986 70.4267 270.72 69.88C271.453 69.3333 272.413 69.06 273.6 69.06C274.28 69.06 274.926 69.16 275.54 69.36C276.166 69.56 276.686 69.86 277.1 70.26L276.52 71.62C276.12 71.2733 275.66 71.0067 275.14 70.82C274.62 70.6333 274.106 70.54 273.6 70.54C272.906 70.54 272.38 70.6733 272.02 70.94C271.66 71.1933 271.48 71.54 271.48 71.98C271.48 72.6467 271.92 73.0733 272.8 73.26L274.7 73.64C275.566 73.8133 276.22 74.1067 276.66 74.52C277.113 74.9333 277.34 75.4933 277.34 76.2C277.34 77.1333 276.973 77.8667 276.24 78.4C275.506 78.92 274.533 79.18 273.32 79.18ZM284.05 79.18C282.823 79.18 281.91 78.8667 281.31 78.24C280.71 77.6133 280.41 76.7067 280.41 75.52V70.8H278.51V69.24H280.41V66.3H282.43V69.24H285.45V70.8H282.43V75.36C282.43 76.0667 282.576 76.6 282.87 76.96C283.176 77.32 283.67 77.5 284.35 77.5C284.563 77.5 284.77 77.48 284.97 77.44C285.17 77.3867 285.37 77.3267 285.57 77.26L285.89 78.78C285.69 78.9 285.41 78.9933 285.05 79.06C284.703 79.14 284.37 79.18 284.05 79.18Z" fill="#545567"/>
<rect x="26" y="30" width="50" height="50" rx="8" fill="#F88C3D"/>
<path d="M64.9285 44.2857H37.0714L51 55.7586L65.086 44.3179C65.0345 44.3028 64.9818 44.2921 64.9285 44.2857Z" fill="white"/>
<path d="M51.676 57.9742C51.2813 58.2975 50.7133 58.2975 50.3186 57.9742L36 46.1778V64.6428C36 65.2346 36.4797 65.7143 37.0714 65.7143H64.9285C65.5203 65.7143 66 65.2346 66 64.6428V46.3364L51.676 57.9742Z" fill="white"/>
<defs>
<filter id="filter0_b_32_0" x="-20" y="-20" width="410" height="150" filterUnits="userSpaceOnUse" color-interpolation-filters="sRGB">
<feFlood flood-opacity="0" result="BackgroundImageFix"/>
<feGaussianBlur in="BackgroundImageFix" stdDeviation="10"/>
<feComposite in2="SourceAlpha" operator="in" result="effect1_backgroundBlur_32_0"/>
<feBlend mode="normal" in="SourceGraphic" in2="effect1_backgroundBlur_32_0" result="shape"/>
</filter>
</defs>
</svg>
