<svg width="390" height="187" viewBox="0 0 390 187" fill="none" xmlns="http://www.w3.org/2000/svg">
<g filter="url(#filter0_b_38_2)">
<rect width="390" height="187" rx="20" fill="white" fill-opacity="0.8"/>
</g>
<path d="M34.928 51V36.648H29.12V34.08H43.808V36.648H38V51H34.928ZM49.8553 51.24C48.5272 51.24 47.3832 50.992 46.4232 50.496C45.4632 50 44.7192 49.296 44.1912 48.384C43.6792 47.472 43.4232 46.392 43.4232 45.144C43.4232 43.928 43.6712 42.864 44.1672 41.952C44.6792 41.04 45.3752 40.328 46.2552 39.816C47.1512 39.288 48.1672 39.024 49.3033 39.024C50.9673 39.024 52.2793 39.552 53.2393 40.608C54.2153 41.664 54.7032 43.104 54.7032 44.928V45.816H46.3032C46.5272 47.912 47.7272 48.96 49.9033 48.96C50.5592 48.96 51.2152 48.864 51.8712 48.672C52.5273 48.464 53.1273 48.144 53.6713 47.712L54.5112 49.728C53.9513 50.192 53.2473 50.56 52.3993 50.832C51.5513 51.104 50.7033 51.24 49.8553 51.24ZM49.4232 41.064C48.5432 41.064 47.8312 41.336 47.2872 41.88C46.7432 42.424 46.4152 43.16 46.3032 44.088H52.2072C52.1432 43.112 51.8712 42.368 51.3912 41.856C50.9272 41.328 50.2713 41.064 49.4232 41.064ZM61.8551 51.24C60.8631 51.24 59.9351 51.12 59.0711 50.88C58.2071 50.64 57.4871 50.296 56.9111 49.848L57.6791 47.88C58.2711 48.28 58.9351 48.592 59.6711 48.816C60.4071 49.024 61.1431 49.128 61.8791 49.128C62.6471 49.128 63.2151 49 63.5831 48.744C63.9671 48.472 64.1591 48.12 64.1591 47.688C64.1591 47.016 63.6631 46.584 62.6711 46.392L60.2711 45.936C58.2391 45.552 57.2231 44.496 57.2231 42.768C57.2231 42 57.4311 41.336 57.8471 40.776C58.2791 40.216 58.8711 39.784 59.6231 39.48C60.3751 39.176 61.2391 39.024 62.2151 39.024C63.0471 39.024 63.8471 39.144 64.6151 39.384C65.3831 39.608 66.0391 39.952 66.5831 40.416L65.7671 42.384C65.3031 42 64.7431 41.696 64.0871 41.472C63.4471 41.248 62.8311 41.136 62.2391 41.136C61.4551 41.136 60.8711 41.272 60.4871 41.544C60.1191 41.816 59.9351 42.176 59.9351 42.624C59.9351 43.328 60.3911 43.76 61.3031 43.92L63.7031 44.376C64.7431 44.568 65.5271 44.92 66.0551 45.432C66.5991 45.944 66.8711 46.632 66.8711 47.496C66.8711 48.664 66.4151 49.584 65.5031 50.256C64.5911 50.912 63.3751 51.24 61.8551 51.24ZM74.0538 51.24C73.0618 51.24 72.1338 51.12 71.2698 50.88C70.4058 50.64 69.6858 50.296 69.1098 49.848L69.8778 47.88C70.4698 48.28 71.1338 48.592 71.8698 48.816C72.6058 49.024 73.3418 49.128 74.0778 49.128C74.8458 49.128 75.4138 49 75.7818 48.744C76.1658 48.472 76.3578 48.12 76.3578 47.688C76.3578 47.016 75.8618 46.584 74.8698 46.392L72.4698 45.936C70.4378 45.552 69.4218 44.496 69.4218 42.768C69.4218 42 69.6298 41.336 70.0458 40.776C70.4778 40.216 71.0698 39.784 71.8218 39.48C72.5738 39.176 73.4378 39.024 74.4138 39.024C75.2458 39.024 76.0458 39.144 76.8138 39.384C77.5818 39.608 78.2378 39.952 78.7818 40.416L77.9658 42.384C77.5018 42 76.9418 41.696 76.2858 41.472C75.6458 41.248 75.0298 41.136 74.4378 41.136C73.6538 41.136 73.0698 41.272 72.6858 41.544C72.3178 41.816 72.1338 42.176 72.1338 42.624C72.1338 43.328 72.5898 43.76 73.5018 43.92L75.9018 44.376C76.9418 44.568 77.7258 44.92 78.2538 45.432C78.7978 45.944 79.0698 46.632 79.0698 47.496C79.0698 48.664 78.6138 49.584 77.7018 50.256C76.7898 50.912 75.5738 51.24 74.0538 51.24ZM87.7406 51.24C86.4126 51.24 85.2686 50.992 84.3086 50.496C83.3486 50 82.6046 49.296 82.0766 48.384C81.5646 47.472 81.3086 46.392 81.3086 45.144C81.3086 43.928 81.5566 42.864 82.0526 41.952C82.5646 41.04 83.2606 40.328 84.1406 39.816C85.0366 39.288 86.0526 39.024 87.1886 39.024C88.8526 39.024 90.1646 39.552 91.1246 40.608C92.1006 41.664 92.5886 43.104 92.5886 44.928V45.816H84.1886C84.4126 47.912 85.6126 48.96 87.7886 48.96C88.4446 48.96 89.1006 48.864 89.7566 48.672C90.4126 48.464 91.0126 48.144 91.5566 47.712L92.3966 49.728C91.8366 50.192 91.1326 50.56 90.2846 50.832C89.4366 51.104 88.5886 51.24 87.7406 51.24ZM87.3086 41.064C86.4286 41.064 85.7166 41.336 85.1726 41.88C84.6286 42.424 84.3006 43.16 84.1886 44.088H90.0926C90.0286 43.112 89.7566 42.368 89.2766 41.856C88.8126 41.328 88.1566 41.064 87.3086 41.064ZM95.4444 51V39.264H98.3724V41.328C98.9484 39.936 100.18 39.168 102.068 39.024L102.98 38.952L103.172 41.496L101.444 41.664C99.4764 41.856 98.4924 42.864 98.4924 44.688V51H95.4444ZM109.07 51.24C108.222 51.24 107.462 51.08 106.79 50.76C106.134 50.424 105.614 49.976 105.23 49.416C104.862 48.856 104.678 48.224 104.678 47.52C104.678 46.656 104.902 45.976 105.35 45.48C105.798 44.968 106.526 44.6 107.534 44.376C108.542 44.152 109.894 44.04 111.59 44.04H112.43V43.536C112.43 42.736 112.254 42.16 111.902 41.808C111.55 41.456 110.958 41.28 110.126 41.28C109.47 41.28 108.798 41.384 108.11 41.592C107.422 41.784 106.726 42.088 106.022 42.504L105.158 40.464C105.574 40.176 106.062 39.928 106.622 39.72C107.198 39.496 107.798 39.328 108.422 39.216C109.062 39.088 109.662 39.024 110.222 39.024C111.934 39.024 113.206 39.424 114.038 40.224C114.87 41.008 115.286 42.232 115.286 43.896V51H112.478V49.128C112.206 49.784 111.774 50.304 111.182 50.688C110.59 51.056 109.886 51.24 109.07 51.24ZM109.694 49.176C110.478 49.176 111.126 48.904 111.638 48.36C112.166 47.816 112.43 47.128 112.43 46.296V45.768H111.614C110.11 45.768 109.062 45.888 108.47 46.128C107.894 46.352 107.606 46.768 107.606 47.376C107.606 47.904 107.79 48.336 108.158 48.672C108.526 49.008 109.038 49.176 109.694 49.176ZM124.235 51.24C123.003 51.24 121.931 50.992 121.019 50.496C120.107 49.984 119.403 49.264 118.907 48.336C118.411 47.408 118.163 46.32 118.163 45.072C118.163 43.824 118.411 42.752 118.907 41.856C119.403 40.944 120.107 40.248 121.019 39.768C121.931 39.272 123.003 39.024 124.235 39.024C124.987 39.024 125.731 39.144 126.467 39.384C127.203 39.624 127.811 39.96 128.291 40.392L127.403 42.48C126.987 42.112 126.515 41.832 125.987 41.64C125.475 41.448 124.979 41.352 124.499 41.352C123.459 41.352 122.651 41.68 122.075 42.336C121.515 42.976 121.235 43.896 121.235 45.096C121.235 46.28 121.515 47.216 122.075 47.904C122.651 48.576 123.459 48.912 124.499 48.912C124.963 48.912 125.459 48.816 125.987 48.624C126.515 48.432 126.987 48.144 127.403 47.76L128.291 49.872C127.811 50.288 127.195 50.624 126.443 50.88C125.707 51.12 124.971 51.24 124.235 51.24ZM136.034 51.24C132.93 51.24 131.378 49.704 131.378 46.632V41.52H129.122V39.264H131.378V35.76H134.378V39.264H137.93V41.52H134.378V46.464C134.378 47.232 134.546 47.808 134.882 48.192C135.218 48.576 135.762 48.768 136.514 48.768C136.738 48.768 136.97 48.744 137.21 48.696C137.45 48.632 137.698 48.568 137.954 48.504L138.41 50.712C138.122 50.872 137.754 51 137.306 51.096C136.874 51.192 136.45 51.24 136.034 51.24ZM155.17 51.24C153.538 51.24 152.106 50.88 150.874 50.16C149.658 49.44 148.714 48.432 148.042 47.136C147.37 45.824 147.034 44.288 147.034 42.528C147.034 40.752 147.37 39.216 148.042 37.92C148.714 36.624 149.658 35.624 150.874 34.92C152.09 34.2 153.522 33.84 155.17 33.84C156.818 33.84 158.25 34.2 159.466 34.92C160.682 35.624 161.626 36.624 162.298 37.92C162.97 39.216 163.306 40.744 163.306 42.504C163.306 44.28 162.97 45.824 162.298 47.136C161.626 48.432 160.682 49.44 159.466 50.16C158.25 50.88 156.818 51.24 155.17 51.24ZM155.17 48.6C156.722 48.6 157.93 48.064 158.794 46.992C159.658 45.92 160.09 44.432 160.09 42.528C160.09 40.608 159.658 39.12 158.794 38.064C157.946 37.008 156.738 36.48 155.17 36.48C153.618 36.48 152.41 37.008 151.546 38.064C150.682 39.12 150.25 40.608 150.25 42.528C150.25 44.432 150.682 45.92 151.546 46.992C152.41 48.064 153.618 48.6 155.17 48.6ZM174.781 51.24C173.021 51.24 171.509 50.888 170.245 50.184C168.997 49.464 168.037 48.456 167.365 47.16C166.693 45.848 166.357 44.304 166.357 42.528C166.357 40.752 166.693 39.216 167.365 37.92C168.037 36.624 168.997 35.624 170.245 34.92C171.509 34.2 173.021 33.84 174.781 33.84C175.917 33.84 176.989 34.016 177.997 34.368C179.021 34.72 179.861 35.224 180.517 35.88L179.509 38.328C178.789 37.72 178.053 37.28 177.301 37.008C176.549 36.72 175.741 36.576 174.877 36.576C173.165 36.576 171.861 37.096 170.965 38.136C170.069 39.16 169.621 40.624 169.621 42.528C169.621 44.432 170.069 45.904 170.965 46.944C171.861 47.984 173.165 48.504 174.877 48.504C175.741 48.504 176.549 48.368 177.301 48.096C178.053 47.808 178.789 47.36 179.509 46.752L180.517 49.2C179.861 49.84 179.021 50.344 177.997 50.712C176.989 51.064 175.917 51.24 174.781 51.24ZM183.678 51V34.08H191.022C192.878 34.08 194.31 34.528 195.318 35.424C196.326 36.304 196.83 37.544 196.83 39.144C196.83 40.408 196.502 41.456 195.846 42.288C195.19 43.104 194.246 43.656 193.014 43.944C193.83 44.2 194.502 44.816 195.03 45.792L197.862 51H194.478L191.55 45.6C191.262 45.072 190.918 44.712 190.518 44.52C190.134 44.328 189.638 44.232 189.03 44.232H186.75V51H183.678ZM186.75 41.952H190.494C192.734 41.952 193.854 41.04 193.854 39.216C193.854 37.408 192.734 36.504 190.494 36.504H186.75V41.952ZM211.136 51.24C210.288 51.24 209.528 51.08 208.856 50.76C208.2 50.424 207.68 49.976 207.296 49.416C206.928 48.856 206.744 48.224 206.744 47.52C206.744 46.656 206.968 45.976 207.416 45.48C207.864 44.968 208.592 44.6 209.6 44.376C210.608 44.152 211.96 44.04 213.656 44.04H214.496V43.536C214.496 42.736 214.32 42.16 213.968 41.808C213.616 41.456 213.024 41.28 212.192 41.28C211.536 41.28 210.864 41.384 210.176 41.592C209.488 41.784 208.792 42.088 208.088 42.504L207.224 40.464C207.64 40.176 208.128 39.928 208.688 39.72C209.264 39.496 209.864 39.328 210.488 39.216C211.128 39.088 211.728 39.024 212.288 39.024C214 39.024 215.272 39.424 216.104 40.224C216.936 41.008 217.352 42.232 217.352 43.896V51H214.544V49.128C214.272 49.784 213.84 50.304 213.248 50.688C212.656 51.056 211.952 51.24 211.136 51.24ZM211.76 49.176C212.544 49.176 213.192 48.904 213.704 48.36C214.232 47.816 214.496 47.128 214.496 46.296V45.768H213.68C212.176 45.768 211.128 45.888 210.536 46.128C209.96 46.352 209.672 46.768 209.672 47.376C209.672 47.904 209.856 48.336 210.224 48.672C210.592 49.008 211.104 49.176 211.76 49.176ZM220.877 51V39.264H223.805V41.088C224.205 40.416 224.741 39.904 225.413 39.552C226.101 39.2 226.869 39.024 227.717 39.024C230.485 39.024 231.869 40.632 231.869 43.848V51H228.869V43.992C228.869 43.08 228.693 42.416 228.341 42C228.005 41.584 227.477 41.376 226.757 41.376C225.877 41.376 225.173 41.656 224.645 42.216C224.133 42.76 223.877 43.488 223.877 44.4V51H220.877ZM239.908 51.24C238.884 51.24 237.98 50.992 237.196 50.496C236.428 50 235.828 49.296 235.396 48.384C234.964 47.456 234.748 46.368 234.748 45.12C234.748 43.856 234.964 42.776 235.396 41.88C235.828 40.968 236.428 40.264 237.196 39.768C237.98 39.272 238.884 39.024 239.908 39.024C240.74 39.024 241.492 39.208 242.164 39.576C242.836 39.944 243.34 40.432 243.676 41.04V34.08H246.676V51H243.748V49.056C243.428 49.728 242.924 50.264 242.236 50.664C241.548 51.048 240.772 51.24 239.908 51.24ZM240.748 48.96C241.644 48.96 242.364 48.64 242.908 48C243.452 47.344 243.724 46.384 243.724 45.12C243.724 43.84 243.452 42.888 242.908 42.264C242.364 41.624 241.644 41.304 240.748 41.304C239.852 41.304 239.132 41.624 238.588 42.264C238.044 42.888 237.772 43.84 237.772 45.12C237.772 46.384 238.044 47.344 238.588 48C239.132 48.64 239.852 48.96 240.748 48.96ZM265.088 51.24C263.456 51.24 262.024 50.88 260.792 50.16C259.576 49.44 258.632 48.432 257.96 47.136C257.288 45.824 256.952 44.288 256.952 42.528C256.952 40.752 257.288 39.216 257.96 37.92C258.632 36.624 259.576 35.624 260.792 34.92C262.008 34.2 263.44 33.84 265.088 33.84C266.736 33.84 268.168 34.2 269.384 34.92C270.6 35.624 271.544 36.624 272.216 37.92C272.888 39.216 273.224 40.744 273.224 42.504C273.224 44.28 272.888 45.824 272.216 47.136C271.544 48.432 270.6 49.44 269.384 50.16C268.168 50.88 266.736 51.24 265.088 51.24ZM265.088 48.6C266.64 48.6 267.848 48.064 268.712 46.992C269.576 45.92 270.008 44.432 270.008 42.528C270.008 40.608 269.576 39.12 268.712 38.064C267.864 37.008 266.656 36.48 265.088 36.48C263.536 36.48 262.328 37.008 261.464 38.064C260.6 39.12 260.168 40.608 260.168 42.528C260.168 44.432 260.6 45.92 261.464 46.992C262.328 48.064 263.536 48.6 265.088 48.6ZM276.827 51V34.08H284.171C286.027 34.08 287.459 34.544 288.467 35.472C289.475 36.4 289.979 37.696 289.979 39.36C289.979 41.024 289.475 42.328 288.467 43.272C287.459 44.2 286.027 44.664 284.171 44.664H279.899V51H276.827ZM279.899 42.24H283.691C285.899 42.24 287.003 41.28 287.003 39.36C287.003 37.456 285.899 36.504 283.691 36.504H279.899V42.24ZM292.964 51V34.08H304.22V36.528H295.916V41.184H303.692V43.632H295.916V48.552H304.22V51H292.964ZM307.764 51V34.08H310.068L319.164 45.888V34.08H322.02V51H319.74L310.62 39.144V51H307.764ZM29.024 94L36.68 77.08H39.2L46.856 94H43.736L42.056 90.088H33.8L32.144 94H29.024ZM37.904 80.416L34.856 87.64H41L37.952 80.416H37.904ZM49.1874 94V77.08H52.2594V94H49.1874ZM69.1981 94.24C67.8701 94.24 66.6381 94.072 65.5021 93.736C64.3661 93.384 63.4061 92.912 62.6221 92.32L63.5581 89.896C64.3421 90.456 65.1981 90.888 66.1261 91.192C67.0701 91.496 68.0941 91.648 69.1981 91.648C70.4621 91.648 71.3821 91.44 71.9581 91.024C72.5341 90.592 72.8221 90.04 72.8221 89.368C72.8221 88.808 72.6141 88.368 72.1981 88.048C71.7981 87.728 71.1021 87.464 70.1101 87.256L67.4701 86.704C64.4621 86.064 62.9581 84.52 62.9581 82.072C62.9581 81.016 63.2381 80.096 63.7981 79.312C64.3581 78.528 65.1341 77.92 66.1261 77.488C67.1181 77.056 68.2621 76.84 69.5581 76.84C70.7101 76.84 71.7901 77.016 72.7981 77.368C73.8061 77.704 74.6461 78.184 75.3181 78.808L74.3821 81.112C73.0541 79.992 71.4381 79.432 69.5341 79.432C68.4301 79.432 67.5661 79.664 66.9421 80.128C66.3181 80.592 66.0061 81.2 66.0061 81.952C66.0061 82.528 66.1981 82.992 66.5821 83.344C66.9661 83.68 67.6221 83.944 68.5501 84.136L71.1661 84.688C72.7501 85.024 73.9261 85.552 74.6941 86.272C75.4781 86.992 75.8701 87.952 75.8701 89.152C75.8701 90.16 75.5981 91.048 75.0541 91.816C74.5101 92.584 73.7341 93.184 72.7261 93.616C71.7341 94.032 70.5581 94.24 69.1981 94.24ZM84.0507 94.24C82.8347 94.24 81.7787 93.992 80.8827 93.496C79.9867 93 79.2907 92.296 78.7947 91.384C78.2987 90.456 78.0507 89.368 78.0507 88.12C78.0507 86.872 78.2987 85.792 78.7947 84.88C79.2907 83.968 79.9867 83.264 80.8827 82.768C81.7787 82.272 82.8347 82.024 84.0507 82.024C85.2667 82.024 86.3227 82.272 87.2187 82.768C88.1147 83.264 88.8107 83.968 89.3067 84.88C89.8027 85.792 90.0507 86.872 90.0507 88.12C90.0507 89.368 89.8027 90.456 89.3067 91.384C88.8107 92.296 88.1147 93 87.2187 93.496C86.3227 93.992 85.2667 94.24 84.0507 94.24ZM84.0507 91.96C84.9467 91.96 85.6667 91.64 86.2107 91C86.7547 90.344 87.0267 89.384 87.0267 88.12C87.0267 86.84 86.7547 85.888 86.2107 85.264C85.6667 84.624 84.9467 84.304 84.0507 84.304C83.1547 84.304 82.4347 84.624 81.8907 85.264C81.3467 85.888 81.0747 86.84 81.0747 88.12C81.0747 89.384 81.3467 90.344 81.8907 91C82.4347 91.64 83.1547 91.96 84.0507 91.96ZM97.0869 94.24C95.6949 94.24 94.6629 93.864 93.9909 93.112C93.3349 92.344 93.0069 91.224 93.0069 89.752V77.08H96.0069V89.608C96.0069 91.048 96.6149 91.768 97.8309 91.768C98.0069 91.768 98.1829 91.76 98.3589 91.744C98.5349 91.728 98.7029 91.696 98.8629 91.648L98.8149 94.024C98.2389 94.168 97.6629 94.24 97.0869 94.24ZM105.399 94.24C102.519 94.24 101.079 92.624 101.079 89.392V82.264H104.079V89.44C104.079 90.272 104.247 90.888 104.583 91.288C104.919 91.688 105.455 91.888 106.191 91.888C106.991 91.888 107.647 91.616 108.159 91.072C108.671 90.512 108.927 89.776 108.927 88.864V82.264H111.927V94H108.999V92.248C108.215 93.576 107.015 94.24 105.399 94.24ZM120.905 94.24C117.801 94.24 116.249 92.704 116.249 89.632V84.52H113.993V82.264H116.249V78.76H119.249V82.264H122.801V84.52H119.249V89.464C119.249 90.232 119.417 90.808 119.753 91.192C120.089 91.576 120.633 91.768 121.385 91.768C121.609 91.768 121.841 91.744 122.081 91.696C122.321 91.632 122.569 91.568 122.825 91.504L123.281 93.712C122.993 93.872 122.625 94 122.177 94.096C121.745 94.192 121.321 94.24 120.905 94.24ZM125.028 79.744V76.816H128.388V79.744H125.028ZM125.22 94V82.264H128.22V94H125.22ZM137.17 94.24C135.954 94.24 134.897 93.992 134.001 93.496C133.105 93 132.409 92.296 131.913 91.384C131.417 90.456 131.169 89.368 131.169 88.12C131.169 86.872 131.417 85.792 131.913 84.88C132.409 83.968 133.105 83.264 134.001 82.768C134.897 82.272 135.954 82.024 137.17 82.024C138.386 82.024 139.442 82.272 140.338 82.768C141.234 83.264 141.93 83.968 142.426 84.88C142.922 85.792 143.17 86.872 143.17 88.12C143.17 89.368 142.922 90.456 142.426 91.384C141.93 92.296 141.234 93 140.338 93.496C139.442 93.992 138.386 94.24 137.17 94.24ZM137.17 91.96C138.066 91.96 138.786 91.64 139.33 91C139.874 90.344 140.146 89.384 140.146 88.12C140.146 86.84 139.874 85.888 139.33 85.264C138.786 84.624 138.066 84.304 137.17 84.304C136.273 84.304 135.553 84.624 135.01 85.264C134.465 85.888 134.193 86.84 134.193 88.12C134.193 89.384 134.465 90.344 135.01 91C135.553 91.64 136.273 91.96 137.17 91.96ZM146.126 94V82.264H149.054V84.088C149.454 83.416 149.99 82.904 150.662 82.552C151.35 82.2 152.118 82.024 152.966 82.024C155.734 82.024 157.118 83.632 157.118 86.848V94H154.118V86.992C154.118 86.08 153.942 85.416 153.59 85C153.254 84.584 152.726 84.376 152.006 84.376C151.126 84.376 150.422 84.656 149.894 85.216C149.382 85.76 149.126 86.488 149.126 87.4V94H146.126ZM167.881 94V77.08H178.945V79.528H170.953V84.304H178.441V86.752H170.953V94H167.881ZM186.48 94.24C185.264 94.24 184.208 93.992 183.312 93.496C182.416 93 181.72 92.296 181.224 91.384C180.728 90.456 180.48 89.368 180.48 88.12C180.48 86.872 180.728 85.792 181.224 84.88C181.72 83.968 182.416 83.264 183.312 82.768C184.208 82.272 185.264 82.024 186.48 82.024C187.696 82.024 188.752 82.272 189.648 82.768C190.544 83.264 191.24 83.968 191.736 84.88C192.232 85.792 192.48 86.872 192.48 88.12C192.48 89.368 192.232 90.456 191.736 91.384C191.24 92.296 190.544 93 189.648 93.496C188.752 93.992 187.696 94.24 186.48 94.24ZM186.48 91.96C187.376 91.96 188.096 91.64 188.64 91C189.184 90.344 189.456 89.384 189.456 88.12C189.456 86.84 189.184 85.888 188.64 85.264C188.096 84.624 187.376 84.304 186.48 84.304C185.584 84.304 184.864 84.624 184.32 85.264C183.776 85.888 183.504 86.84 183.504 88.12C183.504 89.384 183.776 90.344 184.32 91C184.864 91.64 185.584 91.96 186.48 91.96ZM195.436 94V82.264H198.364V84.328C198.94 82.936 200.172 82.168 202.06 82.024L202.972 81.952L203.164 84.496L201.436 84.664C199.468 84.856 198.484 85.864 198.484 87.688V94H195.436ZM212.551 94V77.08H218.839C221.671 77.08 223.855 77.808 225.391 79.264C226.943 80.72 227.719 82.808 227.719 85.528C227.719 88.232 226.943 90.32 225.391 91.792C223.855 93.264 221.671 94 218.839 94H212.551ZM215.623 91.456H218.647C222.551 91.456 224.503 89.48 224.503 85.528C224.503 81.592 222.551 79.624 218.647 79.624H215.623V91.456ZM230.833 79.744V76.816H234.193V79.744H230.833ZM231.025 94V82.264H234.025V94H231.025ZM243.094 98.56C242.006 98.56 240.982 98.432 240.022 98.176C239.078 97.936 238.246 97.56 237.526 97.048L238.39 94.96C239.062 95.408 239.782 95.736 240.55 95.944C241.318 96.168 242.086 96.28 242.854 96.28C244.998 96.28 246.07 95.248 246.07 93.184V91.576C245.734 92.232 245.214 92.752 244.51 93.136C243.822 93.52 243.054 93.712 242.206 93.712C241.15 93.712 240.23 93.472 239.446 92.992C238.662 92.496 238.054 91.808 237.622 90.928C237.19 90.048 236.974 89.024 236.974 87.856C236.974 86.688 237.19 85.672 237.622 84.808C238.054 83.928 238.662 83.248 239.446 82.768C240.23 82.272 241.15 82.024 242.206 82.024C243.086 82.024 243.87 82.224 244.558 82.624C245.246 83.008 245.75 83.528 246.07 84.184V82.264H248.998V92.824C248.998 94.728 248.494 96.16 247.486 97.12C246.478 98.08 245.014 98.56 243.094 98.56ZM243.022 91.432C243.95 91.432 244.686 91.112 245.23 90.472C245.774 89.832 246.046 88.96 246.046 87.856C246.046 86.752 245.774 85.888 245.23 85.264C244.686 84.624 243.95 84.304 243.022 84.304C242.094 84.304 241.358 84.624 240.814 85.264C240.27 85.888 239.998 86.752 239.998 87.856C239.998 88.96 240.27 89.832 240.814 90.472C241.358 91.112 242.094 91.432 243.022 91.432ZM252.394 79.744V76.816H255.754V79.744H252.394ZM252.586 94V82.264H255.586V94H252.586ZM264.559 94.24C261.455 94.24 259.903 92.704 259.903 89.632V84.52H257.647V82.264H259.903V78.76H262.903V82.264H266.455V84.52H262.903V89.464C262.903 90.232 263.071 90.808 263.407 91.192C263.743 91.576 264.287 91.768 265.039 91.768C265.263 91.768 265.495 91.744 265.735 91.696C265.975 91.632 266.223 91.568 266.479 91.504L266.935 93.712C266.647 93.872 266.279 94 265.831 94.096C265.399 94.192 264.975 94.24 264.559 94.24ZM272.738 94.24C271.89 94.24 271.13 94.08 270.458 93.76C269.802 93.424 269.282 92.976 268.898 92.416C268.53 91.856 268.346 91.224 268.346 90.52C268.346 89.656 268.57 88.976 269.018 88.48C269.466 87.968 270.194 87.6 271.202 87.376C272.21 87.152 273.562 87.04 275.258 87.04H276.098V86.536C276.098 85.736 275.922 85.16 275.57 84.808C275.218 84.456 274.626 84.28 273.794 84.28C273.138 84.28 272.466 84.384 271.778 84.592C271.09 84.784 270.394 85.088 269.69 85.504L268.826 83.464C269.242 83.176 269.73 82.928 270.29 82.72C270.866 82.496 271.466 82.328 272.09 82.216C272.73 82.088 273.33 82.024 273.89 82.024C275.602 82.024 276.874 82.424 277.706 83.224C278.538 84.008 278.954 85.232 278.954 86.896V94H276.146V92.128C275.874 92.784 275.442 93.304 274.85 93.688C274.258 94.056 273.554 94.24 272.738 94.24ZM273.362 92.176C274.146 92.176 274.794 91.904 275.306 91.36C275.834 90.816 276.098 90.128 276.098 89.296V88.768H275.282C273.778 88.768 272.73 88.888 272.138 89.128C271.562 89.352 271.274 89.768 271.274 90.376C271.274 90.904 271.458 91.336 271.826 91.672C272.194 92.008 272.706 92.176 273.362 92.176ZM286.559 94.24C285.167 94.24 284.135 93.864 283.463 93.112C282.807 92.344 282.479 91.224 282.479 89.752V77.08H285.479V89.608C285.479 91.048 286.087 91.768 287.303 91.768C287.479 91.768 287.655 91.76 287.831 91.744C288.007 91.728 288.175 91.696 288.335 91.648L288.287 94.024C287.711 94.168 287.135 94.24 286.559 94.24ZM30.848 137V120.08H33.92V134.384H42.032V137H30.848ZM44.3246 122.744V119.816H47.6846V122.744H44.3246ZM44.5166 137V125.264H47.5166V137H44.5166ZM57.8817 137.24C57.0177 137.24 56.2417 137.048 55.5537 136.664C54.8817 136.28 54.3777 135.76 54.0417 135.104V137H51.1137V120.08H54.1137V126.992C54.4657 126.4 54.9697 125.928 55.6257 125.576C56.2977 125.208 57.0497 125.024 57.8817 125.024C58.9217 125.024 59.8257 125.272 60.5937 125.768C61.3617 126.264 61.9617 126.968 62.3937 127.88C62.8257 128.776 63.0417 129.856 63.0417 131.12C63.0417 132.368 62.8257 133.456 62.3937 134.384C61.9617 135.296 61.3537 136 60.5697 136.496C59.8017 136.992 58.9057 137.24 57.8817 137.24ZM57.0417 134.96C57.9377 134.96 58.6577 134.64 59.2017 134C59.7457 133.344 60.0177 132.384 60.0177 131.12C60.0177 129.84 59.7457 128.888 59.2017 128.264C58.6577 127.624 57.9377 127.304 57.0417 127.304C56.1457 127.304 55.4257 127.624 54.8817 128.264C54.3377 128.888 54.0657 129.84 54.0657 131.12C54.0657 132.384 54.3377 133.344 54.8817 134C55.4257 134.64 56.1457 134.96 57.0417 134.96ZM65.9844 137V125.264H68.9124V127.328C69.4884 125.936 70.7204 125.168 72.6084 125.024L73.5204 124.952L73.7124 127.496L71.9844 127.664C70.0164 127.856 69.0324 128.864 69.0324 130.688V137H65.9844ZM79.6096 137.24C78.7616 137.24 78.0016 137.08 77.3296 136.76C76.6736 136.424 76.1536 135.976 75.7696 135.416C75.4016 134.856 75.2176 134.224 75.2176 133.52C75.2176 132.656 75.4416 131.976 75.8896 131.48C76.3376 130.968 77.0656 130.6 78.0736 130.376C79.0816 130.152 80.4336 130.04 82.1296 130.04H82.9696V129.536C82.9696 128.736 82.7936 128.16 82.4416 127.808C82.0896 127.456 81.4976 127.28 80.6656 127.28C80.0096 127.28 79.3376 127.384 78.6496 127.592C77.9616 127.784 77.2656 128.088 76.5616 128.504L75.6976 126.464C76.1136 126.176 76.6016 125.928 77.1616 125.72C77.7376 125.496 78.3376 125.328 78.9616 125.216C79.6016 125.088 80.2016 125.024 80.7616 125.024C82.4736 125.024 83.7456 125.424 84.5776 126.224C85.4096 127.008 85.8256 128.232 85.8256 129.896V137H83.0176V135.128C82.7456 135.784 82.3136 136.304 81.7216 136.688C81.1296 137.056 80.4256 137.24 79.6096 137.24ZM80.2336 135.176C81.0176 135.176 81.6656 134.904 82.1776 134.36C82.7056 133.816 82.9696 133.128 82.9696 132.296V131.768H82.1536C80.6496 131.768 79.6016 131.888 79.0096 132.128C78.4336 132.352 78.1456 132.768 78.1456 133.376C78.1456 133.904 78.3296 134.336 78.6976 134.672C79.0656 135.008 79.5776 135.176 80.2336 135.176ZM89.3506 137V125.264H92.2786V127.328C92.8546 125.936 94.0866 125.168 95.9746 125.024L96.8866 124.952L97.0786 127.496L95.3506 127.664C93.3826 127.856 92.3986 128.864 92.3986 130.688V137H89.3506ZM101.012 141.32L103.172 136.52L98.2996 125.264H101.492L104.78 133.472L108.14 125.264H111.164L104.108 141.32H101.012Z" fill="#595959"/>
<path d="M19.5 32H18.9281L18.6381 32.493C17.4068 34.5862 16.3551 36.0418 15.467 36.9966C14.5608 37.9708 13.9163 38.324 13.5162 38.4068C13.2166 38.4687 12.9699 38.4006 12.6739 38.0821C12.3341 37.7165 11.9987 37.0739 11.7031 36.1433C11.1173 34.2993 10.8097 31.731 10.6543 29.2213C10.5002 26.7309 10.5 24.3808 10.5 23C10.5 18.0294 14.5294 14 19.5 14C24.4706 14 28.5 18.0294 28.5 23C28.5 27.9706 24.4706 32 19.5 32Z" fill="#2EBB5E" stroke="#FBECD7" stroke-width="2"/>
<defs>
<filter id="filter0_b_38_2" x="-20" y="-20" width="430" height="227" filterUnits="userSpaceOnUse" color-interpolation-filters="sRGB">
<feFlood flood-opacity="0" result="BackgroundImageFix"/>
<feGaussianBlur in="BackgroundImageFix" stdDeviation="10"/>
<feComposite in2="SourceAlpha" operator="in" result="effect1_backgroundBlur_38_2"/>
<feBlend mode="normal" in="SourceGraphic" in2="effect1_backgroundBlur_38_2" result="shape"/>
</filter>
</defs>
</svg>
